<?xml version="1.0" encoding="UTF-8"?>
<svg id="Capa_1" xmlns="http://www.w3.org/2000/svg" version="1.1" xmlns:ev="http://www.w3.org/2001/xml-events" viewBox="0 0 1525 800">
  <!-- Generator: Adobe Illustrator 29.0.0, SVG Export Plug-In . SVG Version: 2.1.0 Build 186)  -->
  <defs>
    <style>
      .st0 {
        fill: #9abe61;
      }

      .st1 {
        opacity: .7;
      }

      .st1, .st2 {
        isolation: isolate;
      }

      .st1, .st2, .st3 {
        fill: #81a64f;
      }

      .st4 {
        fill: #84a952;
      }

      .st5 {
        fill: #b9eef0;
      }

      .st6 {
        fill: #84aa50;
      }

      .st7 {
        fill: #82a74f;
      }

      .st8 {
        fill: #84aa51;
      }

      .st9 {
        fill: #82a84f;
      }

      .st10 {
        fill: #bceef0;
      }

      .st2 {
        opacity: .8;
      }

      .st11 {
        fill: #82a750;
      }

      .st12 {
        fill: #83a850;
      }

      .st13 {
        fill: #baeef0;
      }

      .st14 {
        fill: #a3e3e7;
      }

      .st15 {
        fill: #83a84f;
      }

      .st16 {
        fill: #84a951;
      }

      .st17 {
        fill: #82a850;
      }

      .st18 {
        fill: #83a950;
      }

      .st19 {
        fill: #83a74f;
      }

      .st20 {
        fill: #85ab51;
      }
    </style>
  </defs>
  <rect class="st14" x="-39.6" y="-1" width="1615.5" height="956.6"/>
  <path class="st0" d="M-39.2,814.4l1610.1,4,6.4-137.7s-948-91.5-1615.5-15.4l-1,149.2h0Z"/>
  <path class="st4" d="M1109.8,656.2c2.6,9.4-1.5,17.9-3,27.1-.6,3.7-3-1.6-3.4-3.1-1.8-7.3-2.6-21.3,6.4-23.8h0Z"/>
  <path class="st3" d="M757.7,726.3c-2,2.4-4.4,4.7-6.7,6.9-2.3.4-1.5-1.8-1.1-3,.9-3.3,8.7-19,12.3-18.5,7.6,1.3-2.6,12.5-4.5,14.6Z"/>
  <path class="st7" d="M1099.5,682.5c-5,2.8-15.1-15.9-13.1-17.9,3.7-3.7,14.7,13.5,13.1,17.9Z"/>
  <path class="st16" d="M521.4,696.2c0,1.8.9,3.3.9,5s-5.4,19.9-8.3,16.5c.8-6.7-1.1-20.6,7.6-21.5h-.1Z"/>
  <path class="st12" d="M1483,702.1c-.3.5-3.3,1.6-4.2.1-2.5-3.9.5-19.6,7-20.6,2.6,6.2-1.1,9.4-2.6,14.7s.3,4.8-.4,5.8h.1Z"/>
  <path class="st17" d="M511.6,701.2c2.5,1.5,6.5,17.9,7.7,21.5-5.2,4-11.8-18.4-12.2-21.5,1.4,1.3,4-.3,4.5,0Z"/>
  <path class="st18" d="M1119.8,666.6c1,0,1.9.5,2.1,1.4.8,2.8-7,16-10.7,17.2-4.7-.3,3.3-18.1,8.6-18.6h0Z"/>
  <path class="st11" d="M734,719.7c4.2,3.9,6.7,7.6,7.2,13.5-6.3-3-8.8-6.9-12.7-12.1-1.4-1.9-5.2-1.8-1.6-5.8,3.8,0,5,2.4,7.3,4.4h-.1Z"/>
  <path class="st7" d="M1500.9,687.2c2,1.9-11.2,18.6-16,16.9-2-2,12.2-20.3,16-16.9Z"/>
  <path class="st7" d="M520.8,713.3c1.4-1.9,12.3-12.5,13.7-7.3-.1,3.4-11.2,13.6-13.6,13.6-3.5,0-1.4-4.4-.1-6.3Z"/>
  <path class="st8" d="M217.6,779.9c-3.9,5.5-7.7-11.6-3.1-15,4.5-3.4,2.6.1,3.1-.1s-.3-2.1,1.5-1.6,0,4-.1,5.9.9,3.3.6,4.8-1.8,5.7-2,5.9h0Z"/>
  <path class="st19" d="M1005.7,718.2c2.3,6.5-6.3,11.3-8.1,15.1s3.3,4.2-4.2,1.9c2-6.3,4.4-16.1,12.2-16.9h0Z"/>
  <path class="st7" d="M979.2,727.8c.9,1.1,4.8,9.3,4,10.1-2.4,2.4-15.9-10.1-12.2-15,1.1-1,7.3,4,8.2,5h0Z"/>
  <path class="st7" d="M208.4,782.9c-3.1-.8-16.1-15.6-9.8-16.9,6.3-1.3,12.8,12.6,9.8,16.9Z"/>
  <path class="st11" d="M744.4,711.2c2.3,2.1,3.8,6.3,4,9.4s-1.1,9.4-1.5,9.7-2,0-2.8,0c.5-5.9-4.2-14.6-1.4-19.8s1.3,0,1.8.5h-.1Z"/>
  <path class="st9" d="M984.3,719.8c.5.4,1.9-.6,2.6-.3,3.4,1.4,1.6,13.1,1.9,16.4-2.1,2.6-6.2-10.4-6.2-11.8s1-4,.6-5.9c1.5-.4.6,1.3,1.1,1.8h-.1Z"/>
  <path class="st9" d="M1474.7,701.2c-3.1,2.3-5-8.8-5.3-10.1s-3-5.5-1.3-6.8c6.2-4.3,8.1,15.7,6.5,16.9Z"/>
  <path class="st15" d="M234.4,772.5c0,.3-3.7,3.5-4.2,3.8-1.9,1.3-3.9,2.1-5.9,2.9-1.1-4.4,4.8-13.1,9.4-9.9,4.7,3.1,1.3,2,.6,3.1h0Z"/>
  <path class="st6" d="M631.8,763.6c.9.6,2.1-.3,2.8,1.4s2,6.9,0,7.3c-4.2,1.1-9.9-10.3-5.5-11.2s1.8,1.9,2.6,2.5h.1Z"/>
  <path class="st20" d="M652.1,763.9c-.4,4.7-3,7.4-7.6,7.6-.3-4.5,3.3-7.2,7.6-7.6Z"/>
  <path class="st10" d="M1426,451.6c4.9-28.1,40.2-32.7,59-16,6.3,3.3,7.8,12.3,7.7,19.1,1.4.9,2.9,1.4,4.5,1.5l5.7-.9c1.8-.8,5.4-.5,6.5.9,4.2,1.4,11.5,8.1,11.8,12.6s-2,4.3-2.4,5.2c-.5,1.9-1.1,2.1-1.9.9-2.3.4-4.5,0-6.5,0-34.4.3-70.5,1.3-104.6,0-7-.3-15.1-.1-21-3.8-7.6-14.9,20.1-24,32.1-19.6,3,1.3,5.4,1.9,7.3,1.8.8-.4,1.4-1,1.9-1.9v.3h-.1Z"/>
  <path class="st13" d="M1293.2,242.8c2.8.5,7.3,2,10.3,2.8,9.1,4.2,16.4,8.9,22.5,16.9,7.4,11.6,11,23.8,12.3,37.3l.5.3c3.8-3,7.6-5.8,11.6-8.4,0-1.5,2.4-2.5,3.8-1.9,8.9-1.3,18.1-2.1,27.2-.9,4.8,1.3,8.8,3.3,11.2,7.6,2,1.9,4.5,5.4,3.8,7.9,1.6,4,1.6,12,0,16v5.2c.6-1.6,1.4-1.8,1.9,0,12.3-2.8,24.8-2,35.6,4.7,1.4,1.1,1.8,1.1,2.8,2.8v4.7c-27.4-.5-54.8,1.1-82.1,1s-22.3-1.5-32.7-1-3.5,0-4.3,2h-1.9c1.6-2.5.9-1.8-1.4-1.9-54.2-2.1-109.9,1-164.3-.9-4.2,0-12.2-.3-15.9-1s-1.4-7.9.9-10.3,6.7-5.4,7-5.5c8.3-4.9,19.8-5.5,29.2-2.9l.9-.9c-2.1-.8-2.6-1.6-.4-2.5-.3-4.3.9-7.2,3.3-8.8,12-16.4,31.7-18.4,49.7-12.2,3.1-.5,5,0,5.7,1.9,1.4-1.4.9.4.9.3-1.4-14.1.8-27.2,10.3-37.9-.8-1.3,1.4-3.1,2.8-2.8.6-.6,1.5-1.6,1.9-1.9.9-.6,1.9-1.3,2.8-1.9,14.6-7.6,27.9-9.1,44.1-7.6h0Z"/>
  <path class="st5" d="M260.1,256.6c7.6,1.9,14.9,4.5,21.5,8.4,2.1-.5,5.5,2.6,5.7,4.7,8.6,9.4,12.2,19.1,13.1,32,.4-2.4,1-2.3,1.9,0,13.5-7.8,33.5-10.2,40.3,6.5,3,5,1.8,17.6-6,17.7-54,.6-109.5-.5-162.2-2.9-12.7-1.8-13.7-8.9-7.9-18.6-.4-1.5.4-2.5,1.9-2.8h1.9c7.8-6.7,17-8.4,27.2-8.4s4.9.5,7.6,1.9c1,.6,1.3-.6.8-4,.6-5.4,1.6-10.6,3-15.7,1.1-4.3,3.9-8.1,8.4-11.2,1-.6,2.4-1.6,2.8-1.9,1.6-.9,9.2-3,9.4-4.7.3-.9.6-.8.9,0,10.2-2.4,20.1-2.8,30-.9h0Z"/>
  <ellipse class="st2" cx="-522" cy="635.1" rx="206.9" ry="44.4"/>
  <ellipse class="st1" cx="1951.5" cy="670.3" rx="165.1" ry="44.4"/>
  <path class="st3" d="M499.9,776.1c-2,2.4-4.4,4.7-6.7,6.9-2.3.4-1.5-1.8-1.1-3,.9-3.3,8.7-19,12.3-18.5,7.6,1.3-2.6,12.5-4.5,14.6Z"/>
  <path class="st11" d="M476.2,769.6c4.2,3.9,6.7,7.6,7.2,13.5-6.3-3-8.8-6.9-12.7-12.1-1.4-1.9-5.2-1.8-1.6-5.8,3.8,0,5,2.4,7.3,4.4h-.1Z"/>
  <path class="st11" d="M486.5,761.1c2.3,2.1,3.8,6.3,4,9.4s-1.1,9.4-1.5,9.7-2,0-2.8,0c.5-5.9-4.2-14.6-1.4-19.8s1.3,0,1.8.5h-.1Z"/>
  <path class="st3" d="M36.6,720.1c-2,2.4-4.4,4.7-6.7,6.9-2.3.4-1.5-1.8-1.1-3,.9-3.3,8.7-19,12.3-18.5,7.6,1.3-2.6,12.5-4.5,14.6Z"/>
  <path class="st11" d="M12.9,713.5c4.2,3.9,6.7,7.6,7.2,13.5-6.3-3-8.8-6.9-12.7-12.1-1.4-1.9-5.2-1.8-1.6-5.8,3.8,0,5,2.4,7.3,4.4h-.1Z"/>
  <path class="st11" d="M23.4,705c2.3,2.1,3.8,6.3,4,9.4s-1.1,9.4-1.5,9.7-2,0-2.8,0c.5-5.9-4.2-14.6-1.4-19.8s1.3,0,1.8.5h-.1Z"/>
  <path class="st13" d="M492.1,74.6c2.8.5,7.3,2,10.3,2.8,9.1,4.2,16.4,8.9,22.5,16.9,7.4,11.6,11,23.8,12.3,37.3l.5.3c3.8-3,7.6-5.8,11.6-8.4,0-1.5,2.4-2.5,3.8-1.9,8.9-1.3,18.1-2.1,27.2-.9,4.8,1.3,8.8,3.3,11.2,7.6,2,1.9,4.5,5.4,3.8,7.9,1.6,4,1.6,12,0,16v5.2c.6-1.6,1.4-1.8,1.9,0,12.3-2.8,24.8-2,35.6,4.7,1.4,1.1,1.8,1.1,2.8,2.8v4.7c-27.4-.5-54.8,1.1-82.1,1-27.3-.1-22.3-1.5-32.7-1s-3.5,0-4.3,2h-1.9c1.6-2.5.9-1.8-1.4-1.9-54.2-2.1-109.9,1-164.3-.9-4.2,0-12.2-.3-15.9-1s-1.4-7.9.9-10.3,6.7-5.4,7-5.5c8.3-4.9,19.8-5.5,29.2-2.9l.9-.9c-2.1-.8-2.6-1.6-.4-2.5-.3-4.3.9-7.2,3.3-8.8,12-16.4,31.7-18.4,49.7-12.2,3.1-.5,5,0,5.7,1.9,1.4-1.4.9.4.9.3-1.4-14.1.8-27.2,10.3-37.9-.8-1.3,1.4-3.1,2.8-2.8.6-.6,1.5-1.6,1.9-1.9.9-.6,1.9-1.3,2.8-1.9,14.6-7.6,27.9-9.1,44.1-7.6h0Z"/>
  <path class="st10" d="M962.7,148.3c4.9-28.1,40.2-32.7,59-16,6.3,3.3,7.8,12.3,7.7,19.1,1.4.9,2.9,1.4,4.5,1.5l5.7-.9c1.8-.8,5.4-.5,6.5.9,4.2,1.4,11.5,8.1,11.8,12.6s-2,4.3-2.4,5.2c-.5,1.9-1.1,2.1-1.9.9-2.3.4-4.5,0-6.5,0-34.4.3-70.5,1.3-104.6,0-7-.3-15.1-.1-21-3.8-7.6-14.9,20.1-24,32.1-19.6,3,1.3,5.4,1.9,7.3,1.8.8-.4,1.4-1,1.9-1.9v.3h-.1Z"/>
  <path class="st10" d="M-27.2,86.7c7.3-41.8,59.9-48.8,88-23.8,9.4,4.9,11.6,18.4,11.4,28.5,2.1,1.3,4.3,2.1,6.8,2.3l8.4-1.3c2.6-1.1,8.1-.8,9.8,1.3,6.2,2.1,17.1,12,17.6,18.8.6,6.8-3,6.4-3.6,7.7-.8,2.8-1.7,3.2-2.8,1.3-3.4.6-6.8,0-9.8,0-51.2.4-105.1,1.9-155.9,0-10.5-.4-22.5-.2-31.3-5.6-11.3-22.1,30-35.8,47.8-29.3,4.5,1.9,8.1,2.8,10.9,2.6,1.1-.6,2.1-1.5,2.8-2.8v.4h-.2Z"/>
</svg>